<?xml version="1.0" encoding="UTF-8" standalone="no"?>
<svg width="264px" height="220px" viewBox="0 0 264 220" version="1.1" xmlns="http://www.w3.org/2000/svg" xmlns:xlink="http://www.w3.org/1999/xlink" xmlns:sketch="http://www.bohemiancoding.com/sketch/ns">
    <!-- Generator: Sketch 3.4.1 (15681) - http://www.bohemiancoding.com/sketch -->
    <title>Artboard 9</title>
    <desc>Created with Sketch.</desc>
    <defs></defs>
    <g id="Page-1" stroke="none" stroke-width="1" fill="none" fill-rule="evenodd" sketch:type="MSPage">
        <g id="Artboard-9" sketch:type="MSArtboardGroup" fill="#CCCCCC">
            <g id="Imported-Layers-Copy-2" sketch:type="MSLayerGroup" transform="translate(51.000000, 1.000000)">
                <path d="M15.2125307,31.5 C13.1501106,31.5 11.4717445,33.1825 11.4717445,35.25 L11.4717445,50.25 C11.4717445,52.3175 13.1501106,54 15.2125307,54 C17.2749509,54 18.953317,52.3175 18.953317,50.25 L18.953317,35.25 C18.953317,33.1825 17.2749509,31.5 15.2125307,31.5 L15.2125307,31.5 Z M17.2907453,50.25 C17.2907453,51.3983333 16.3588739,52.3333333 15.2125307,52.3333333 C14.0661876,52.3333333 13.1343161,51.3983333 13.1343161,50.25 L13.1343161,35.25 C13.1343161,34.1016667 14.0661876,33.1666667 15.2125307,33.1666667 C16.3588739,33.1666667 17.2907453,34.1016667 17.2907453,35.25 L17.2907453,50.25 L17.2907453,50.25 Z" id="Fill-1" sketch:type="MSShapeGroup"></path>
                <path d="M131.675676,11.5 L132.673219,11.5 L132.673219,36.5 L131.675676,36.5 L131.675676,11.5 Z" id="Fill-2" sketch:type="MSShapeGroup"></path>
                <path d="M131.675676,46 L132.673219,46 L132.673219,56 L131.675676,56 L131.675676,46 Z" id="Fill-3" sketch:type="MSShapeGroup"></path>
                <path d="M128.184275,81 L15.960688,81 C13.2099631,81 10.972973,83.2495078 10.972973,86.015625 L10.972973,182.984375 C10.972973,185.750492 13.2099631,188 15.960688,188 L128.184275,188 C130.935,188 133.17199,185.750492 133.17199,182.984375 L133.17199,86.015625 C133.17199,83.2495078 130.935,81 128.184275,81 L128.184275,81 Z M12.6355446,86.015625 C12.6355446,84.1715469 14.1268714,82.671875 15.960688,82.671875 L128.184275,82.671875 C129.689734,82.671875 130.949963,83.6892109 131.358124,85.0718516 C129.629881,84.6279688 127.007174,85.1353828 124.652973,86.4879297 C121.895598,88.0728672 117.030913,87.6824844 115.184627,85.7272266 C113.581908,84.0319453 108.864361,84.2359141 103.756941,84.6196094 C102.890741,84.6848125 102.135934,84.7424922 101.568165,84.7617188 C99.5772359,84.8311016 99.0984152,88.1355625 98.6345577,91.3305156 C98.3860033,93.0425156 98.0110934,95.6289062 97.4266994,95.6289062 C96.9212776,95.6289062 96.3826044,93.7706172 95.9511671,92.2776328 C94.9128911,88.6922969 93.5163309,83.8045703 89.0997093,83.9257812 C85.8078174,84.0327812 84.3364414,84.8260859 83.037973,85.5266016 C81.7835627,86.202875 80.7901761,86.7353672 78.3570025,86.4369375 C76.4342383,86.2003672 75.5231491,85.7698594 74.4690786,85.2716406 C72.7499795,84.4616172 70.8031081,83.5420859 64.2035299,83.0906797 C58.4427191,82.7011328 53.0842506,84.1899375 47.9020147,85.6352734 C43.2559582,86.9301406 38.8617813,88.1522812 34.2531327,88.1054688 C28.0816667,88.0411016 25.177154,86.5924219 22.8420721,85.4296328 C21.4006224,84.7115625 20.1553563,84.0904609 18.4952785,83.9274531 C15.155172,83.6097969 13.3612572,86.1343281 12.6355446,87.5194766 L12.6355446,86.015625 L12.6355446,86.015625 Z M128.184275,186.328125 L15.960688,186.328125 C14.974783,186.328125 14.0969451,185.885914 13.4876126,185.198773 L21.1262981,177.132812 L122.199017,177.132812 L130.632412,185.228031 C130.023911,185.899289 129.15688,186.328125 128.184275,186.328125 L128.184275,186.328125 Z M131.509419,182.984375 C131.509419,183.546961 131.358124,184.068586 131.112895,184.534203 L122.531532,176.296875 L20.7705078,176.296875 L13.008792,184.49157 C12.7785258,184.03682 12.6355446,183.529406 12.6355446,182.984375 L12.6355446,159.13257 C13.3994963,158.281586 15.2732146,156.83625 19.3041196,156.651508 C22.3989967,156.521102 25.130602,157.703953 27.7782473,158.858383 C30.1166544,159.877391 32.334525,160.84457 34.6488247,160.84457 C34.8001188,160.84457 34.9522441,160.840391 35.1027068,160.831195 C37.4835094,160.698281 39.7811835,159.395055 42.2135258,158.014922 C44.9692383,156.451719 47.8147297,154.843375 50.8555733,154.979633 C53.7442916,155.118398 55.6047093,156.750148 57.2464988,158.189633 C58.8043284,159.556391 60.1476863,160.739242 61.8534848,159.958477 C62.6033047,159.615742 63.0821253,159.110836 63.5908722,158.577508 C65.291683,156.78693 67.6201147,154.336797 83.2516134,154.977961 C85.7870352,155.241281 88.8378542,155.805539 92.0690622,156.402398 C99.0626699,157.693922 106.294857,159.02975 109.260053,157.438961 C113.51208,155.157687 121.527338,154.223945 123.79758,155.746187 C125.80181,157.089539 129.151892,159.341555 131.228444,158.477195 C131.331523,158.434562 131.416314,158.366016 131.509419,158.310008 L131.509419,182.984375 L131.509419,182.984375 Z M131.509419,157.21075 C131.346486,157.435617 131.151134,157.604477 130.910061,157.704789 C129.249152,158.398617 126.002981,156.220164 124.258112,155.050688 C121.544795,153.230016 113.016634,154.476398 108.869349,156.701664 C106.160188,158.155359 98.7534316,156.78693 92.2186937,155.579836 C88.9716912,154.980469 85.9050778,154.413703 83.311466,154.144531 C67.2851065,153.485813 64.8003931,156.094773 62.9898526,157.999039 C62.5193448,158.493914 62.112846,158.921914 61.5093325,159.197773 C60.3496888,159.726922 59.3895536,158.960367 57.7926536,157.559336 C56.1350696,156.106477 54.0726495,154.297508 50.8938124,154.145367 C47.6326781,153.977344 44.6633251,155.665102 41.8053645,157.28682 C39.4594758,158.617633 37.2432678,159.874047 35.0578174,159.99693 C32.7667936,160.123156 30.5073587,159.13675 28.1082678,158.090992 C25.3741687,156.898945 22.5353276,155.649219 19.2667117,155.817242 C15.7578542,155.977742 13.7428174,157.037711 12.6355446,157.964766 L12.6355446,152.890625 L131.509419,152.890625 L131.509419,157.21075 L131.509419,157.21075 Z M14.0013473,151.21875 L21.1262981,143.695312 L122.199017,143.695312 L130.03638,151.21875 L14.0013473,151.21875 L14.0013473,151.21875 Z M131.509419,151.21875 L131.240913,151.21875 L122.531532,142.859375 L20.7705078,142.859375 L12.8533415,151.21875 L12.6355446,151.21875 L12.6355446,119.244977 C13.8168018,118.188352 15.562502,116.977914 16.5301188,117.195258 C16.7354464,117.241234 17.0297215,117.370805 17.2325553,117.931719 C17.5659009,118.85125 17.8826208,120.372656 18.1901966,121.836383 C18.9632924,125.524539 19.3348771,126.976562 20.1686568,126.976562 L20.2019083,126.976562 C20.7921212,126.976562 21.1105037,126.196633 21.3449263,125.444289 C21.541941,124.811484 21.7165111,124.176172 21.8844308,123.575969 C22.8969369,119.968898 23.6284685,117.363281 27.5986896,117.363281 C30.1690254,117.363281 33.8690786,118.040391 37.4485954,118.696602 C40.7479689,119.300148 43.8652907,119.871094 45.8869779,119.871094 C47.9136527,119.871094 49.7649263,119.163891 51.2520966,118.596289 C52.826552,117.993578 54.0693243,117.51793 54.7651106,118.10225 C56.0236773,119.157203 59.0786527,120.600867 61.6481572,120.338383 C62.8684848,120.213828 63.8277887,119.723133 64.5002989,118.878 C66.1778337,116.771438 74.8938657,118.253555 78.1707944,119.015094 C78.9447215,119.376219 87.9109705,123.459773 91.8496028,120.629289 C95.7142506,117.853141 106.841011,115.164766 112.235225,117.333188 C117.909582,119.616969 124.415225,118.762641 126.741994,117.29975 C127.004681,117.135906 127.286486,117.099961 127.600713,117.186898 C129.017224,117.588148 130.634075,120.300766 131.137834,121.31225 L131.509419,121.125 L131.509419,151.21875 L131.509419,151.21875 Z M131.509419,120.250609 C130.843559,119.086984 129.376339,116.821594 127.825991,116.382727 C127.278174,116.228914 126.766933,116.299133 126.301413,116.590875 C124.071904,117.990234 117.762445,118.655641 112.543632,116.557437 C106.929959,114.297898 95.3709296,117.073211 91.3657944,119.948836 C87.7305815,122.563648 78.5756306,118.283648 78.4841892,118.239344 L78.4010606,118.210086 C77.1549631,117.91918 66.1637019,115.44982 63.8502334,118.355539 C63.3240295,119.019273 62.5542588,119.405477 61.5641974,119.506625 C59.3496519,119.736508 56.4950164,118.463375 55.2971335,117.46025 C54.2289312,116.563289 52.7126658,117.14343 50.9578215,117.813852 C49.4598444,118.386469 47.7615274,119.035156 45.8869779,119.035156 C43.9409378,119.035156 40.8593612,118.470898 37.5965643,117.873203 C33.9821335,117.211141 30.2438411,116.527344 27.5986896,116.527344 C23.0000164,116.527344 22.1113718,119.688023 21.0847338,123.348594 C20.9184767,123.942109 20.7455692,124.554852 20.5510483,125.180133 C20.3939353,125.686711 20.2692424,125.928297 20.195258,126.040312 C19.8112039,125.501969 19.3298894,123.204813 19.0031941,121.648297 C18.6897993,120.156984 18.3664292,118.613844 18.013964,117.638305 C17.6980753,116.76475 17.1303071,116.469664 16.7105078,116.376875 C15.4394717,116.093492 13.7469738,117.232039 12.6355446,118.144883 L12.6355446,114.4375 L131.509419,114.4375 L131.509419,120.250609 L131.509419,120.250609 Z M13.2099631,112.765625 L21.1262981,104.40625 L122.199017,104.40625 L130.907568,112.765625 L13.2099631,112.765625 L13.2099631,112.765625 Z M131.509419,112.187992 L122.531532,103.570312 L20.7705078,103.570312 L12.6355446,112.15957 L12.6355446,88.5242734 L13.0287428,88.6588594 C13.0885954,88.4841484 14.5441769,84.3730078 18.4138124,84.7600469 C19.9225962,84.9080078 21.1038534,85.4965078 22.4729812,86.1786328 C24.8828788,87.379875 27.8838206,88.8745312 34.2448198,88.9414062 C34.3329361,88.9422422 34.4202211,88.9430781 34.5083374,88.9430781 C39.1485749,88.9430781 43.7106716,87.6707812 48.1239681,86.4411172 C53.2397011,85.0158438 58.532498,83.5379063 64.1470025,83.9249453 C70.5911302,84.3646484 72.4631859,85.2490703 74.1157821,86.029 C75.1881409,86.5347422 76.2014783,87.0128984 78.2564169,87.2661875 C80.9547707,87.6013984 82.15681,86.9493672 83.4311712,86.2630625 C84.6490049,85.6068516 86.0289394,84.8620313 89.127973,84.7617188 C92.8413268,84.6597344 94.1364701,89.0041016 95.1523014,92.5116953 C95.8164988,94.8071797 96.2978133,96.4648438 97.4266994,96.4648438 C98.7301556,96.4648438 99.0510319,94.2521172 99.4566994,91.4517266 C99.8324406,88.8628281 100.299623,85.6427969 101.598092,85.5976562 C102.173342,85.5775938 102.940618,85.5199141 103.819287,85.453875 C107.295725,85.1913906 113.117219,84.7525234 114.582776,86.3040234 C116.68593,88.5309609 121.975401,88.9890547 125.065291,87.2151953 C127.580762,85.7681875 130.180192,85.4655781 131.506925,85.9947266 C131.507756,86.00225 131.509419,86.0089375 131.509419,86.015625 L131.509419,112.187992 L131.509419,112.187992 Z" id="Fill-4" sketch:type="MSShapeGroup"></path>
                <path d="M189.01265,179.513973 L189.01265,150.025581 C189.047569,149.771377 189.028447,149.568015 189.01265,149.470501 L189.01265,114.504658 L188.943643,114.504658 C189.067523,114.102933 189.035098,113.767052 189.01265,113.632032 L189.01265,89.5010748 C189.01265,87.2199146 188.163777,86.4623061 185.73605,86.1672638 L147.441981,82 C145.149774,82 144.116328,83.0359818 144.116328,85.333811 L144.116328,96.8221238 C143.274937,96.7387786 142.450175,96.6596005 141.659501,96.5870902 L141.225503,96.5470844 L141.206381,96.9846471 C140.772383,106.989414 143.060433,110.199874 144.199469,111.170847 L144.116328,111.170847 L144.116328,132.660592 C143.274937,132.577247 142.450175,132.498069 141.659501,132.425559 L141.225503,132.385553 L141.206381,132.822282 C140.772383,142.827883 143.060433,146.038343 144.199469,147.009315 L144.116328,147.009315 L144.116328,172.666325 C143.274937,172.582979 142.450175,172.503801 141.659501,172.431291 L141.225503,172.391285 L141.206381,172.828015 C140.645177,185.765702 144.637624,187.345928 144.808063,187.407604 L144.887048,187.426773 C145.187188,187.47178 174.984212,191.880745 182.121896,192.430823 C182.718019,192.477497 183.276729,192.5 183.797194,192.5 C186.155082,192.5 187.744745,192.030766 188.53043,191.096466 C189.111588,190.4072 189.048401,189.690431 189.01265,189.476233 L189.01265,179.513973 L189.01265,179.513973 Z M144.947741,85.333811 C144.947741,83.9694489 146.043544,82.8567894 147.398748,82.8334528 L184.764128,86.9957158 L185.634617,87.1048981 C187.45375,87.3657689 188.181237,88.122544 188.181237,89.5010748 L188.181237,100.91021 C185.830831,102.074543 182.248271,101.596141 182.211688,101.590307 C181.97723,101.556969 160.131843,98.4456898 144.947741,96.9054691 L144.947741,85.333811 L144.947741,85.333811 Z M142.019503,133.295683 C157.122958,134.696717 181.844204,138.218055 182.096122,138.253894 C182.249934,138.276397 185.627966,138.733129 188.181237,137.670477 L188.181237,149.955571 C188.150474,150.125595 188.078973,150.335625 187.89523,150.553156 C187.457907,151.073231 186.140948,151.894182 182.185083,151.594972 C175.225322,151.057395 146.549043,146.824289 145.066633,146.605924 C144.729079,146.430899 141.615436,144.493121 142.019503,133.295683 L142.019503,133.295683 Z M144.947741,132.743938 L144.947741,111.59174 C146.204838,111.7776 175.103936,116.045712 182.121896,116.586623 C182.718019,116.633296 183.276729,116.655799 183.797194,116.655799 C185.848291,116.655799 187.316567,116.299915 188.181237,115.593147 L188.181237,136.748678 C185.830831,137.913845 182.248271,137.433776 182.211688,137.428776 C181.97723,137.395438 160.131843,134.284158 144.947741,132.743938 L144.947741,132.743938 Z M188.181237,151.431615 L188.181237,176.754411 C185.830831,177.918744 182.248271,177.441176 182.211688,177.434508 C181.97723,177.40117 160.131843,174.289891 144.947741,172.74967 L144.947741,147.430209 C146.204838,147.616069 175.103936,151.88418 182.121896,152.425091 C182.718019,152.471764 183.276729,152.494268 183.797194,152.494268 C185.848291,152.494268 187.316567,152.138383 188.181237,151.431615 L188.181237,151.431615 Z M187.89523,190.558889 C187.457907,191.078963 186.140948,191.901581 182.185083,191.600704 C175.225322,191.063127 146.549043,186.830021 145.066633,186.611656 C144.729079,186.436631 141.615436,184.498854 142.019503,173.301416 C157.122958,174.70245 181.844204,178.223788 182.096122,178.259626 C182.249934,178.282129 185.627966,178.738862 188.181237,177.676209 L188.181237,189.515406 L188.193708,189.616253 C188.195371,189.621254 188.295972,190.084654 187.89523,190.558889 L187.89523,190.558889 Z M187.89523,114.714688 C187.457907,115.234762 186.140948,116.056547 182.185083,115.756504 C175.225322,115.218927 146.549043,110.98582 145.066633,110.767455 C144.729079,110.59243 141.615436,108.654653 142.019503,97.4572148 C142.698768,97.5197238 143.402143,97.5889004 144.116328,97.6597439 L144.116328,97.8356024 L144.947741,97.8356024 L144.947741,97.7422557 C160.109395,99.2833098 181.860001,102.382087 182.096122,102.415425 C182.249934,102.438762 185.627966,102.894661 188.181237,101.832008 L188.181237,113.671205 L188.193708,113.772053 C188.195371,113.777053 188.295972,114.240453 187.89523,114.714688 L187.89523,114.714688 Z" id="Fill-5" sketch:type="MSShapeGroup"></path>
                <path d="M201.394269,73.3877308 C200.360134,72.3185885 198.940798,71.7769231 197.176196,71.7769231 L192.184394,71.7769231 L192.184394,71.8946038 C191.917332,71.8253308 191.641119,71.7769231 191.352427,71.7769231 L143.930303,67.0972346 L143.930303,7.51153846 C143.930303,2.17584231 141.761365,0 136.4426,0 L11.647539,0 C5.84956048,0 0,2.32273462 0,7.51153846 L0,205.315385 C0,211.131819 2.31536436,217 7.48770365,217 L14.5594238,217 C15.2158458,217 15.8090383,216.731254 16.2732759,216.221304 C17.8323822,214.514515 17.5936077,210.035969 17.4713085,208.603769 C17.5228905,204.683581 23.471455,203.646154 26.6229463,203.646154 L120.635225,203.646154 C124.534655,203.646154 125.616212,204.711958 125.627028,208.597092 C125.535511,209.611985 125.260962,213.974519 127.067163,215.967581 C127.680323,216.642785 128.476515,217 129.37088,217 L136.4426,217 C141.614939,217 143.930303,211.131819 143.930303,205.315385 L143.930303,203.194627 L191.352427,208.653846 C191.641119,208.653846 191.917332,208.605438 192.184394,208.536165 L192.184394,208.653846 L197.952421,208.653846 C198.028962,208.659688 198.14627,208.666365 198.295192,208.666365 C198.99238,208.666365 200.377605,208.523646 201.499929,207.515431 C202.495794,206.621558 202.999966,205.319558 202.999966,203.646154 L202.999966,77.6576231 C202.999966,77.3980577 203.029084,75.0786615 201.394269,73.3877308 L201.394269,73.3877308 Z M2.49590122,7.51153846 C2.49590122,3.55045385 8.4819043,2.50384615 11.647539,2.50384615 L136.4426,2.50384615 C140.361165,2.50384615 141.434402,3.5805 141.434402,7.51153846 L141.434402,66.7692308 L2.49590122,66.7692308 L2.49590122,7.51153846 L2.49590122,7.51153846 Z M141.434402,205.315385 C141.434402,208.491096 140.391116,214.496154 136.4426,214.496154 L129.37088,214.496154 C129.212806,214.496154 129.074699,214.460265 128.914962,214.284162 C128.09381,213.377769 127.95404,210.515873 128.117105,208.772362 L128.122929,208.653846 C128.122929,203.31815 125.953991,201.142308 120.635225,201.142308 L26.6229463,201.142308 C20.8249678,201.142308 14.9754073,203.465042 14.9754073,208.653846 L14.9803991,208.764015 C15.1967105,211.223627 14.9479524,213.939465 14.4679074,214.496154 L7.48770365,214.496154 C3.53918792,214.496154 2.49590122,208.491096 2.49590122,205.315385 L2.49590122,68.4384615 L137.736309,68.4384615 C137.450112,68.9308846 137.274567,69.4967538 137.274567,70.1076923 L137.274567,199.473077 C137.274567,201.316742 138.76462,202.811538 140.602435,202.811538 L141.434402,202.907519 L141.434402,205.315385 L141.434402,205.315385 Z M192.184394,205.315385 C192.184394,205.743542 191.86159,206.096585 191.448103,206.144992 L140.886968,200.32355 L140.745533,200.307692 L140.602435,200.307692 C140.144021,200.307692 139.770468,199.93295 139.770468,199.473077 L139.770468,70.1076923 C139.770468,69.6753615 140.099927,69.3181462 140.520902,69.27725 L191.107828,74.2690846 L191.230127,74.2807692 L191.352427,74.2807692 C191.81084,74.2807692 192.184394,74.6555115 192.184394,75.1153846 L192.184394,205.315385 L192.184394,205.315385 Z M200.504064,203.646154 C200.504064,204.569238 200.282761,205.240269 199.84681,205.639215 C199.186228,206.243477 198.14627,206.156677 198.14627,206.157512 L194.561324,206.153338 C194.631209,205.883758 194.680295,205.606665 194.680295,205.315385 L194.680295,75.1153846 C194.680295,74.8257731 194.632041,74.5486808 194.562987,74.2807692 L197.176196,74.2807692 C198.233626,74.2807692 199.044794,74.5628692 199.589733,75.1195577 C200.519872,76.0676808 200.504896,77.5741615 200.504064,77.6192308 L200.504064,203.646154 L200.504064,203.646154 Z" id="Fill-6" sketch:type="MSShapeGroup"></path>
            </g>
        </g>
    </g>
</svg>