<?xml version="1.0" encoding="utf-8"?>
<!-- Generator: Adobe Illustrator 19.1.0, SVG Export Plug-In . SVG Version: 6.00 Build 0)  -->
<svg version="1.1" id="Layer_1" xmlns="http://www.w3.org/2000/svg" xmlns:xlink="http://www.w3.org/1999/xlink" x="0px" y="0px"
	 viewBox="-454 256 50 50" enable-background="new -454 256 50 50" xml:space="preserve">
<g>
	<polygon fill="#71A436" points="-416.1,288 -424,288 -424,296 	"/>
	<path fill="#71A436" d="M-418,265h-22c-2.2,0-4,0.8-4,3v24c0,2.2,1.8,5,4,5h15v-8.8v-0.5V287h10l1-0.8V268
		C-414,265.8-415.8,265-418,265z M-436,290c0,0.6-0.4,1-1,1h-1c-0.6,0-1-0.4-1-1v-1c0-0.6,0.4-1,1-1h1c0.6,0,1,0.4,1,1V290z
		 M-436,284c0,0.6-0.4,1-1,1h-1c-0.6,0-1-0.4-1-1v-1c0-0.6,0.4-1,1-1h1c0.6,0,1,0.4,1,1V284z M-436,278c0,0.6-0.4,1-1,1h-1
		c-0.6,0-1-0.4-1-1v-1c0-0.6,0.4-1,1-1h1c0.6,0,1,0.4,1,1V278z M-436,272c0,0.6-0.4,1-1,1h-1c-0.6,0-1-0.4-1-1v-1c0-0.6,0.4-1,1-1h1
		c0.6,0,1,0.4,1,1V272z M-429,290h-5v-1h5V290z M-419,284h-15v-1h15V284z M-419,278h-15v-1h15V278z M-419,272h-15v-1h15V272z"/>
</g>
</svg>
