<?xml version="1.0" encoding="utf-8"?>
<!-- Generator: Adobe Illustrator 19.1.0, SVG Export Plug-In . SVG Version: 6.00 Build 0)  -->
<svg version="1.1" id="Layer_1" xmlns="http://www.w3.org/2000/svg" xmlns:xlink="http://www.w3.org/1999/xlink" x="0px" y="0px"
	 viewBox="-454 256 50 50" enable-background="new -454 256 50 50" xml:space="preserve">
<path fill="#8BC34A" d="M-414.5,266.5h-2v-2c0-1.1-0.9-2-2-2h-2c-1.1,0-2,0.9-2,2v2h-12v-2c0-1.1-0.9-2-2-2h-2c-1.1,0-2,0.9-2,2v2
	h-3c-2.2,0-4,1.8-4,4v25c0,2.2,1.8,4,4,4h29c2.2,0,4-1.8,4-4v-25C-410.5,268.3-412.3,266.5-414.5,266.5z M-420.5,264.5h2v7h-2V264.5
	z M-438.5,264.5h2v7h-2V264.5z M-419.5,292.5h-19v-1h19V292.5z M-419.5,287.5h-19v-1h19V287.5z M-419.5,282.5h-19v-1h19V282.5z
	 M-412.5,277.5h-33v-2h33V277.5z"/>
</svg>
