<?xml version="1.0" encoding="utf-8"?>
<!-- Generator: Adobe Illustrator 19.1.0, SVG Export Plug-In . SVG Version: 6.00 Build 0)  -->
<svg version="1.1" id="Layer_1" xmlns="http://www.w3.org/2000/svg" xmlns:xlink="http://www.w3.org/1999/xlink" x="0px" y="0px"
	 viewBox="-454 256 50 50" enable-background="new -454 256 50 50" xml:space="preserve">
<path fill="#71A436" d="M-414,266h-2v-2c0-1.1-0.9-2-2-2h-2c-1.1,0-2,0.9-2,2v2h-12v-2c0-1.1-0.9-2-2-2h-2c-1.1,0-2,0.9-2,2v2h-3
	c-2.2,0-4,1.8-4,4v25c0,2.2,1.8,4,4,4h29c2.2,0,4-1.8,4-4v-25C-410,267.8-411.8,266-414,266z M-420,264h2v7h-2V264z M-438,264h2v7
	h-2V264z M-419,292h-19v-1h19V292z M-419,287h-19v-1h19V287z M-419,282h-19v-1h19V282z M-412,277h-33v-2h33V277z"/>
</svg>
