<?xml version="1.0" encoding="utf-8"?>
<!-- Generator: Adobe Illustrator 19.1.0, SVG Export Plug-In . SVG Version: 6.00 Build 0)  -->
<svg version="1.1" id="Layer_1" xmlns="http://www.w3.org/2000/svg" xmlns:xlink="http://www.w3.org/1999/xlink" x="0px" y="0px"
	 viewBox="-454 256 50 50" enable-background="new -454 256 50 50" xml:space="preserve">
<g>
	<polygon fill="#8BC34A" points="-421,298 -413.1,290 -421,290 	"/>
	<path fill="#8BC34A" d="M-418,262h-25c-0.2,0-2,0.8-2,3v29c0,2.2,1.8,5,4,5h19v-10h10v-24C-412,262.8-413.8,262-418,262z M-436,290
		c0,0.6-0.4,1-1,1h-1c-0.6,0-1-0.4-1-1v-1c0-0.6,0.4-1,1-1h1c0.6,0,1,0.4,1,1V290z M-436,284c0,0.6-0.4,1-1,1h-1c-0.6,0-1-0.4-1-1
		v-1c0-0.6,0.4-1,1-1h1c0.6,0,1,0.4,1,1V284z M-436,278c0,0.6-0.4,1-1,1h-1c-0.6,0-1-0.4-1-1v-1c0-0.6,0.4-1,1-1h1c0.6,0,1,0.4,1,1
		V278z M-436,272c0,0.6-0.4,1-1,1h-1c-0.6,0-1-0.4-1-1v-1c0-0.6,0.4-1,1-1h1c0.6,0,1,0.4,1,1V272z M-427,290h-7v-1h7V290z M-419,284
		h-15v-1h15V284z M-419,278h-15v-1h15V278z M-419,272h-15v-1h15V272z"/>
</g>
</svg>
