<?xml version="1.0" encoding="utf-8"?>
<!-- Generator: Adobe Illustrator 19.1.0, SVG Export Plug-In . SVG Version: 6.00 Build 0)  -->
<svg version="1.1" id="Layer_1" xmlns="http://www.w3.org/2000/svg" xmlns:xlink="http://www.w3.org/1999/xlink" x="0px" y="0px"
	 viewBox="-454 256 50 50" enable-background="new -454 256 50 50" xml:space="preserve">
<g>
	<path fill="#555555" d="M-417,262h-25c-2.2,0-4,1.8-4,4v29c0,2.2,1.8,4,4,4h18l11-10v-23C-413,263.8-414.8,262-417,262z M-444,295
		v-29c0-1.1,0.9-2,2-2h25c1.1,0,2,0.9,2,2v21h-10l-1,1v9h-16C-443.1,297-444,296.1-444,295z M-415.5,289l-8.5,7.3V289H-415.5z"/>
	<rect x="-435" y="271" fill="#555555" width="15" height="1"/>
	<rect x="-435" y="277" fill="#555555" width="15" height="1"/>
	<rect x="-435" y="283" fill="#555555" width="15" height="1"/>
	<rect x="-435" y="289" fill="#555555" width="6" height="1"/>
	<path fill="#555555" d="M-438,270h-1c-0.6,0-1,0.4-1,1v1c0,0.6,0.4,1,1,1h1c0.6,0,1-0.4,1-1v-1C-437,270.4-437.4,270-438,270z"/>
	<path fill="#555555" d="M-438,276h-1c-0.6,0-1,0.4-1,1v1c0,0.6,0.4,1,1,1h1c0.6,0,1-0.4,1-1v-1C-437,276.4-437.4,276-438,276z"/>
	<path fill="#555555" d="M-438,282h-1c-0.6,0-1,0.4-1,1v1c0,0.6,0.4,1,1,1h1c0.6,0,1-0.4,1-1v-1C-437,282.4-437.4,282-438,282z"/>
	<path fill="#555555" d="M-438,288h-1c-0.6,0-1,0.4-1,1v1c0,0.6,0.4,1,1,1h1c0.6,0,1-0.4,1-1v-1C-437,288.4-437.4,288-438,288z"/>
</g>
</svg>
