<?xml version="1.0" encoding="utf-8"?>
<!-- Generator: Adobe Illustrator 19.1.0, SVG Export Plug-In . SVG Version: 6.00 Build 0)  -->
<svg version="1.1" id="Layer_1" xmlns="http://www.w3.org/2000/svg" xmlns:xlink="http://www.w3.org/1999/xlink" x="0px" y="0px"
	 viewBox="0 0 50 50" enable-background="new 0 0 50 50" xml:space="preserve">
<g>
	<path fill="#555555" d="M41.3,29c-1.2-6-6.1-9.6-11.8-9.6c-3.6,0-7,1.6-9.3,4.3c-1.1-0.6-2.4-0.8-3.7-0.8c-3.7,0-6.8,2.1-7.7,6.1H2
		v2h0.5c0.1,1,3.3,16,13,16h8h3h8C44.2,47,47,31.7,47,30.7V29H41.3z M29.5,21.4c4.6,0,8.5,2.6,9.7,7.6h-15c-0.4-2-1.2-3-2.4-4
		C23.8,22.8,26.5,21.4,29.5,21.4z M16.5,25c2.6,0,4.8,1,5.7,4H10.8C11.7,26,13.9,25,16.5,25z M34.5,45h-8h-3h-8c-5.2,0-8.3-6-9.8-10
		h38.6C42.8,39,39.7,45,34.5,45z M44,34.2V34H5.4c-0.4-2-0.7-2-0.8-3h40.9C45.3,32,45,32.7,44,34.2z"/>
	<path fill="#555555" d="M16.2,17.1l0.6-0.8c0,0-1.4-1.1-1.6-2.8c-0.1-1.1,0.5-2.3,1.6-3.4c1.4-1.4,2.1-2.8,1.9-4.2
		c-0.3-1.7-1.9-2.6-2-2.6l-0.5,0.9c0,0,1.3,0.7,1.5,1.9c0.2,1-0.4,2.1-1.6,3.3c-1.4,1.4-2,2.8-1.9,4.2
		C14.4,15.7,16.1,17.1,16.2,17.1z"/>
	<path fill="#555555" d="M25.2,17.1l0.6-0.8c0,0-1.4-1.1-1.6-2.8c-0.1-1.1,0.5-2.3,1.6-3.4c1.4-1.4,2.1-2.8,1.9-4.2
		c-0.3-1.7-1.9-2.6-2-2.6l-0.5,0.9c0,0,1.3,0.7,1.5,1.9c0.2,1-0.4,2.1-1.6,3.3c-1.4,1.4-2,2.8-1.9,4.2
		C23.4,15.7,25.1,17.1,25.2,17.1z"/>
	<path fill="#555555" d="M34.2,17.1l0.6-0.8c0,0-1.4-1.1-1.6-2.8c-0.1-1.1,0.5-2.3,1.6-3.4c1.4-1.4,2.1-2.8,1.9-4.2
		c-0.3-1.7-1.9-2.6-2-2.6l-0.5,0.9c0,0,1.3,0.7,1.5,1.9c0.2,1-0.4,2.1-1.6,3.3c-1.4,1.4-2,2.8-1.9,4.2
		C32.4,15.7,34.1,17.1,34.2,17.1z"/>
</g>
</svg>
