<?xml version="1.0" encoding="utf-8"?>
<!-- Generator: Adobe Illustrator 19.1.0, SVG Export Plug-In . SVG Version: 6.00 Build 0)  -->
<svg version="1.1" id="Layer_1" xmlns="http://www.w3.org/2000/svg" xmlns:xlink="http://www.w3.org/1999/xlink" x="0px" y="0px"
	 viewBox="0 0 50 50" enable-background="new 0 0 50 50" xml:space="preserve">
<g>
	<path fill="#555555" d="M40,13c0-2.2-1.8-4-4-4H14c-2.2,0-4,1.8-4,4v24c0,2.2,1.8,4,4,4h15l11-9.8V13z M29,38.3V32h7.3L29,38.3z
		 M38,30.5L37.5,31h-9L28,31.5V39H14c-1.1,0-2-0.9-2-2V13c0-1.1,0.9-2,2-2h22c1.1,0,2,0.9,2,2V30.5z"/>
	<rect x="20" y="15" fill="#555555" width="15" height="1"/>
	<rect x="20" y="21" fill="#555555" width="15" height="1"/>
	<rect x="20" y="27" fill="#555555" width="15" height="1"/>
	<rect x="20" y="33" fill="#555555" width="5" height="1"/>
	<path fill="#555555" d="M17,14h-1c-0.6,0-1,0.4-1,1v1c0,0.6,0.4,1,1,1h1c0.6,0,1-0.4,1-1v-1C18,14.4,17.6,14,17,14z"/>
	<path fill="#555555" d="M17,20h-1c-0.6,0-1,0.4-1,1v1c0,0.6,0.4,1,1,1h1c0.6,0,1-0.4,1-1v-1C18,20.4,17.6,20,17,20z"/>
	<path fill="#555555" d="M17,26h-1c-0.6,0-1,0.4-1,1v1c0,0.6,0.4,1,1,1h1c0.6,0,1-0.4,1-1v-1C18,26.4,17.6,26,17,26z"/>
	<path fill="#555555" d="M17,32h-1c-0.6,0-1,0.4-1,1v1c0,0.6,0.4,1,1,1h1c0.6,0,1-0.4,1-1v-1C18,32.4,17.6,32,17,32z"/>
</g>
</svg>
