<?xml version="1.0" encoding="utf-8"?>
<!-- Generator: Adobe Illustrator 19.1.0, SVG Export Plug-In . SVG Version: 6.00 Build 0)  -->
<svg version="1.1" id="Layer_1" xmlns="http://www.w3.org/2000/svg" xmlns:xlink="http://www.w3.org/1999/xlink" x="0px" y="0px"
	 viewBox="-454 256 50 50" enable-background="new -454 256 50 50" xml:space="preserve">
<g>
	<path fill="#71A436" d="M-437.8,280c-2.8,0-5.1,1.6-6.2,4l13,0C-432.1,281.6-435,280-437.8,280z"/>
	<path fill="#71A436" d="M-438.3,273.4l0.6-0.8c0,0-1.4-1.1-1.6-2.8c-0.1-1.1,0.5-2.3,1.6-3.4c1.4-1.4,2.1-2.8,1.9-4.2
		c-0.3-1.7-1.9-2.6-2-2.6l-0.5,0.9c0,0,1.3,0.7,1.5,1.9c0.2,1-0.4,2.1-1.6,3.3c-1.4,1.4-2,2.8-1.9,4.2
		C-440.1,272-438.4,273.3-438.3,273.4z"/>
	<path fill="#71A436" d="M-429.3,273.4l0.6-0.8c0,0-1.4-1.1-1.6-2.8c-0.1-1.1,0.5-2.3,1.6-3.4c1.4-1.4,2.1-2.8,1.9-4.2
		c-0.3-1.7-1.9-2.6-2-2.6l-0.5,0.9c0,0,1.3,0.7,1.5,1.9c0.2,1-0.4,2.1-1.6,3.3c-1.4,1.4-2,2.8-1.9,4.2
		C-431.1,272-429.4,273.3-429.3,273.4z"/>
	<path fill="#71A436" d="M-420.3,273.4l0.6-0.8c0,0-1.4-1.1-1.6-2.8c-0.1-1.1,0.5-2.3,1.6-3.4c1.4-1.4,2.1-2.8,1.9-4.2
		c-0.3-1.7-1.9-2.6-2-2.6l-0.5,0.9c0,0,1.3,0.7,1.5,1.9c0.2,1-0.4,2.1-1.6,3.3c-1.4,1.4-2,2.8-1.9,4.2
		C-422.1,272-420.4,273.3-420.3,273.4z"/>
	<path fill="#71A436" d="M-452,285v1v1v0c0.1,0.6,3.3,16,13,16h8h3h8c9.7,0,12.9-15.2,13-15.9l0-0.1h0v-2H-452z M-410,292h-39v-1h39
		V292z"/>
	<path fill="#71A436" d="M-429.6,283.6l0.2,0.4l14.8,0c-1.5-4.3-5.6-7.5-10.4-7.5c-3.2,0-6,1.3-8,3.4
		C-431.5,280.8-430.3,282-429.6,283.6z"/>
</g>
</svg>
